<?xml version="1.0" encoding="UTF-8" standalone="no"?>
<svg
   width="500"
   height="498"
   viewBox="0 0 500 497.99999"
   version="1.1"
   id="svg20"
   sodipodi:docname="μTorrent logo with title.svg"
   inkscape:version="1.1.2 (b8e25be833, 2022-02-05)"
   xmlns:inkscape="http://www.inkscape.org/namespaces/inkscape"
   xmlns:sodipodi="http://sodipodi.sourceforge.net/DTD/sodipodi-0.dtd"
   xmlns="http://www.w3.org/2000/svg"
   xmlns:svg="http://www.w3.org/2000/svg"
   xmlns:rdf="http://www.w3.org/1999/02/22-rdf-syntax-ns#"
   xmlns:cc="http://creativecommons.org/ns#"
   xmlns:dc="http://purl.org/dc/elements/1.1/">
  <defs
     id="defs24" />
  <sodipodi:namedview
     id="namedview22"
     pagecolor="#ffffff"
     bordercolor="#000000"
     borderopacity="0.25"
     inkscape:pageshadow="2"
     inkscape:pageopacity="0.0"
     inkscape:pagecheckerboard="0"
     showgrid="false"
     inkscape:zoom="0.40844424"
     inkscape:cx="634.11348"
     inkscape:cy="73.449437"
     inkscape:window-width="1920"
     inkscape:window-height="974"
     inkscape:window-x="-11"
     inkscape:window-y="-11"
     inkscape:window-maximized="1"
     inkscape:current-layer="svg20" />
  <!-- Generator: Sketch 56.3 (81716) - https://sketch.com -->
  <title
     id="title2">Group</title>
  <desc
     id="desc4">Created with Sketch.</desc>
  <g
     id="g186"
     transform="scale(2.0742981)">
    <path
       d="m 137.38383,239.99418 c 44.64832,-6.2824 81.43169,-37.04615 96.37094,-78.28306 -1.17843,0.43717 -2.61663,0.95348 -4.33344,1.46978 -20.0859,5.93191 -34.17804,-4.68447 -37.02056,-6.51981 -2.84253,-1.81651 -5.88835,-4.82769 -6.45686,-4.6694 -1.83729,11.38519 -12.22849,27.19481 -35.94756,34.36661 -12.98901,3.93827 -26.97196,4.02872 -36.94903,-1.56777 l 3.29055,8.26095 c 1.31773,3.29382 3.52774,8.69811 4.89817,11.97687 0,0 8.61793,20.53931 16.14779,34.96583"
       id="Fill-18"
       style="fill:#76b83f;fill-rule:evenodd;stroke:none;stroke-width:5.02241" />
    <path
       d="M 27.337163,71.292153 62.88564,64.663041 c 3.237841,-0.591683 6.82582,1.247434 7.962829,4.085251 l 24.423106,61.011188 c 3.324434,6.36154 4.002122,7.76725 6.166955,10.48071 0,0 16.86313,24.09695 42.57008,18.21027 17.33374,-3.96466 25.42834,-16.98922 25.97802,-26.25641 0.5685,-2.97349 -0.32002,-6.71579 -1.86364,-10.20936 L 138.86947,55.784027 c -1.17465,-2.668226 0.21837,-5.28746 3.07219,-5.833919 l 29.64506,-5.528656 c 2.71828,-0.48616 5.90718,1.202209 7.09313,3.783756 l 32.401,69.437962 c 1.30643,2.77752 3.95318,7.15673 5.89964,9.70812 0,0 6.73923,9.68928 17.53705,7.85017 2.66934,0 5.7114,-1.44718 5.7114,-1.44718 0.47438,-4.32267 0.72663,-8.70565 0.72663,-13.16023 C 240.95557,53.986366 187.01165,0 120.46273,0 53.932634,0 0,53.986366 0,120.59405 c 0,53.44744 34.739017,98.7583 82.851068,114.57923 -3.249135,-6.69318 -6.53592,-14.0911 -9.227845,-21.31567 L 23.067731,77.872271 c -1.110654,-2.984796 0.835815,-5.935674 4.269432,-6.580118"
       id="Fill-19"
       style="fill:#76b83f;fill-rule:evenodd;stroke:none;stroke-width:5.02241" />
  </g>
  <metadata
     id="metadata26">
    <rdf:RDF>
      <cc:Work
         rdf:about="">
        <dc:title>Group</dc:title>
      </cc:Work>
    </rdf:RDF>
  </metadata>
</svg>
